<?xml version="1.0" standalone="no"?>
<!DOCTYPE svg PUBLIC "-//W3C//DTD SVG 20010904//EN"
 "http://www.w3.org/TR/2001/REC-SVG-20010904/DTD/svg10.dtd">
<svg version="1.0" xmlns="http://www.w3.org/2000/svg"
 width="310.000000pt" height="310.000000pt" viewBox="0 0 310.000000 310.000000"
 preserveAspectRatio="xMidYMid meet">
<metadata>
Created by potrace 1.11, written by Peter Selinger 2001-2013
</metadata>
<g transform="translate(0.000000,310.000000) scale(0.100000,-0.100000)"
fill="#000000" stroke="none">
<path d="M1360 3089 c-19 -4 -73 -15 -120 -24 -183 -35 -397 -125 -562 -236
-123 -83 -324 -284 -407 -407 -111 -165 -202 -379 -236 -562 -9 -47 -20 -104
-25 -128 -13 -55 -13 -309 0 -364 5 -24 16 -81 25 -128 34 -183 125 -397 236
-562 83 -123 284 -324 407 -407 165 -111 379 -202 562 -236 47 -9 104 -20 128
-25 55 -13 309 -13 364 0 24 5 81 16 128 25 183 34 397 125 562 236 123 83
324 284 407 407 111 165 202 379 236 562 9 47 20 104 25 128 13 55 13 309 0
364 -5 24 -16 81 -25 128 -34 183 -125 397 -236 562 -83 123 -284 324 -407
407 -165 111 -379 202 -562 236 -47 9 -104 20 -128 25 -50 12 -322 11 -372 -1z
m210 -401 c12 -13 31 -41 43 -63 22 -40 22 -45 19 -491 -4 -491 -8 -439 55
-639 61 -193 148 -276 226 -215 14 11 31 36 37 55 18 56 -10 103 -84 138 l-59
29 7 116 c24 399 119 672 284 823 51 47 118 89 142 89 7 0 9 -260 8 -837 l-3
-838 -189 -5 -189 -5 -14 -54 c-16 -63 -57 -139 -116 -214 -45 -58 -176 -187
-190 -187 -16 0 -138 124 -187 190 -57 77 -87 135 -111 210 l-17 55 -188 5
-189 5 -3 838 c-1 504 2 837 7 837 20 0 170 -120 224 -180 85 -94 112 -158
142 -332 23 -135 55 -423 55 -493 0 -26 -6 -33 -51 -53 -92 -43 -114 -126 -49
-185 71 -64 153 -15 203 122 82 222 101 404 91 871 -6 258 -5 300 9 333 16 37
54 97 62 97 2 0 14 -10 25 -22z"/>
<path d="M967 2263 c-10 -9 -9 -831 1 -836 4 -3 19 -3 33 0 20 4 28 13 32 33
6 28 53 83 96 113 l25 16 -23 163 c-12 90 -24 195 -27 233 -7 87 -24 132 -81
218 -48 72 -46 70 -56 60z"/>
<path d="M2098 2242 c-15 -18 -43 -66 -63 -106 -40 -79 -51 -144 -76 -408
l-13 -136 32 -27 c18 -15 46 -51 64 -81 24 -40 38 -54 56 -54 12 0 25 6 27 13
3 6 4 196 3 421 l-3 410 -27 -32z"/>
<path d="M1519 1443 c-12 -38 -37 -100 -55 -140 -39 -83 -39 -82 -16 -99 80
-61 91 -67 119 -55 16 6 46 27 68 45 l39 33 -36 79 c-20 44 -46 107 -58 142
-13 34 -26 62 -31 62 -4 0 -17 -30 -30 -67z"/>
<path d="M970 1145 l0 -175 124 0 123 0 6 68 c3 37 7 73 9 81 2 8 -13 18 -40
26 -62 19 -105 56 -138 119 -24 47 -33 56 -56 56 l-28 0 0 -175z"/>
<path d="M2045 1266 c-29 -61 -78 -101 -140 -114 l-40 -8 4 -80 c2 -43 5 -82
8 -86 2 -5 60 -8 129 -8 l124 0 0 169 c0 145 -2 170 -16 175 -33 12 -44 5 -69
-48z"/>
<path d="M1356 1078 c-3 -18 -7 -49 -8 -68 l-3 -35 68 -3 c56 -2 67 0 67 13 0
30 -28 82 -55 103 -41 32 -63 29 -69 -10z"/>
<path d="M1666 1075 c-37 -34 -62 -95 -44 -106 15 -10 89 -12 112 -3 17 7 21
47 10 103 -8 39 -39 42 -78 6z"/>
<path d="M1369 823 c11 -39 54 -121 85 -162 25 -33 25 -33 31 -10 3 13 5 62 3
109 l-3 85 -62 3 -62 3 8 -28z"/>
<path d="M1607 843 c-4 -3 -7 -53 -7 -110 0 -76 3 -103 13 -103 28 1 117 152
117 201 0 17 -8 19 -58 19 -32 0 -62 -3 -65 -7z"/>
</g>
</svg>
